<svg width="8" height="14" viewBox="0 0 8 14" fill="none" xmlns="http://www.w3.org/2000/svg">
<path d="M4 0.60721C1.7904 0.60721 0 2.39041 0 4.59921C0 8.41841 4 13.3992 4 13.3992C4 13.3992 8 8.41761 8 4.59921C8 2.39121 6.2096 0.60721 4 0.60721ZM4 6.80801C3.42713 6.80801 2.87773 6.58044 2.47265 6.17536C2.06757 5.77028 1.84 5.22088 1.84 4.64801C1.84 4.07514 2.06757 3.52574 2.47265 3.12066C2.87773 2.71558 3.42713 2.48801 4 2.48801C4.57287 2.48801 5.12227 2.71558 5.52735 3.12066C5.93243 3.52574 6.16 4.07514 6.16 4.64801C6.16 5.22088 5.93243 5.77028 5.52735 6.17536C5.12227 6.58044 4.57287 6.80801 4 6.80801Z" fill="#B0B3B5"/>
</svg>
